<svg width="125" height="19" viewBox="0 0 125 19" fill="none" xmlns="http://www.w3.org/2000/svg">
<path d="M0.547092 1.2H10.7231V3.072H2.56309V8.64H10.5791V10.512H2.56309V16.128H10.8671V18H0.547092V1.2ZM19.9464 16.464C20.6344 16.464 21.2184 16.352 21.6984 16.128C22.1944 15.888 22.5944 15.576 22.8984 15.192C23.2184 14.792 23.4504 14.344 23.5944 13.848C23.7544 13.336 23.8344 12.8 23.8344 12.24V11.952H25.8504V12.24C25.8504 13.088 25.7224 13.888 25.4664 14.64C25.2104 15.376 24.8344 16.024 24.3384 16.584C23.8424 17.128 23.2264 17.56 22.4904 17.88C21.7544 18.184 20.9064 18.336 19.9464 18.336C18.0904 18.336 16.6424 17.752 15.6024 16.584C14.5624 15.416 14.0424 13.712 14.0424 11.472V7.728C14.0424 5.552 14.5624 3.864 15.6024 2.664C16.6424 1.464 18.0904 0.863999 19.9464 0.863999C20.9064 0.863999 21.7544 1.024 22.4904 1.344C23.2264 1.648 23.8424 2.08 24.3384 2.64C24.8344 3.184 25.2104 3.832 25.4664 4.584C25.7224 5.32 25.8504 6.112 25.8504 6.96V7.248H23.8344V6.96C23.8184 6.416 23.7304 5.888 23.5704 5.376C23.4264 4.864 23.1944 4.416 22.8744 4.032C22.5704 3.632 22.1784 3.32 21.6984 3.096C21.2184 2.856 20.6344 2.736 19.9464 2.736C18.6504 2.736 17.6744 3.208 17.0184 4.152C16.3784 5.096 16.0584 6.336 16.0584 7.872V11.328C16.0584 12.976 16.3784 14.248 17.0184 15.144C17.6744 16.024 18.6504 16.464 19.9464 16.464ZM28.1617 7.728C28.1617 5.552 28.6817 3.864 29.7217 2.664C30.7617 1.464 32.2097 0.863999 34.0657 0.863999C35.9217 0.863999 37.3697 1.464 38.4097 2.664C39.4497 3.864 39.9697 5.552 39.9697 7.728V11.472C39.9697 13.712 39.4497 15.416 38.4097 16.584C37.3697 17.752 35.9217 18.336 34.0657 18.336C32.2097 18.336 30.7617 17.752 29.7217 16.584C28.6817 15.416 28.1617 13.712 28.1617 11.472V7.728ZM34.0657 16.464C35.3617 16.464 36.3297 16.024 36.9697 15.144C37.6257 14.248 37.9537 12.976 37.9537 11.328V7.872C37.9537 6.336 37.6257 5.096 36.9697 4.152C36.3297 3.208 35.3617 2.736 34.0657 2.736C32.7697 2.736 31.7937 3.208 31.1377 4.152C30.4977 5.096 30.1777 6.336 30.1777 7.872V11.328C30.1777 12.976 30.4977 14.248 31.1377 15.144C31.7937 16.024 32.7697 16.464 34.0657 16.464ZM42.041 1.2H45.881L48.137 17.136H48.425L50.681 1.2H54.521V18H52.649V2.064H52.361L50.105 18H46.457L44.201 2.064H43.913V18H42.041V1.2ZM56.2563 1.2H60.0963L62.3523 17.136H62.6403L64.8963 1.2H68.7363V18H66.8643V2.064H66.5763L64.3203 18H60.6723L58.4163 2.064H58.1283V18H56.2563V1.2ZM71.6237 1.2H81.7997V3.072H73.6397V8.64H81.6557V10.512H73.6397V16.128H81.9437V18H71.6237V1.2ZM96.183 18H94.167V12.384C94.167 11.968 94.071 11.648 93.879 11.424C93.687 11.2 93.351 11.088 92.871 11.088H87.639V18H85.623V1.2H91.623C92.487 1.2 93.239 1.328 93.879 1.584C94.519 1.824 95.047 2.152 95.463 2.568C95.895 2.984 96.215 3.472 96.423 4.032C96.647 4.576 96.759 5.152 96.759 5.76V6.48C96.759 7.104 96.583 7.728 96.231 8.352C95.895 8.976 95.367 9.456 94.647 9.792V10.08C95.127 10.16 95.503 10.352 95.775 10.656C96.047 10.96 96.183 11.392 96.183 11.952V18ZM87.639 9.216H91.383C92.519 9.216 93.359 8.976 93.903 8.496C94.463 8 94.743 7.28 94.743 6.336V5.904C94.743 5.056 94.463 4.376 93.903 3.864C93.359 3.336 92.519 3.072 91.383 3.072H87.639V9.216ZM105.238 16.464C105.926 16.464 106.51 16.352 106.99 16.128C107.486 15.888 107.886 15.576 108.19 15.192C108.51 14.792 108.742 14.344 108.886 13.848C109.046 13.336 109.126 12.8 109.126 12.24V11.952H111.142V12.24C111.142 13.088 111.014 13.888 110.758 14.64C110.502 15.376 110.126 16.024 109.63 16.584C109.134 17.128 108.518 17.56 107.782 17.88C107.046 18.184 106.198 18.336 105.238 18.336C103.382 18.336 101.934 17.752 100.894 16.584C99.8543 15.416 99.3343 13.712 99.3343 11.472V7.728C99.3343 5.552 99.8543 3.864 100.894 2.664C101.934 1.464 103.382 0.863999 105.238 0.863999C106.198 0.863999 107.046 1.024 107.782 1.344C108.518 1.648 109.134 2.08 109.63 2.64C110.126 3.184 110.502 3.832 110.758 4.584C111.014 5.32 111.142 6.112 111.142 6.96V7.248H109.126V6.96C109.11 6.416 109.022 5.888 108.862 5.376C108.718 4.864 108.486 4.416 108.166 4.032C107.862 3.632 107.47 3.32 106.99 3.096C106.51 2.856 105.926 2.736 105.238 2.736C103.942 2.736 102.966 3.208 102.31 4.152C101.67 5.096 101.35 6.336 101.35 7.872V11.328C101.35 12.976 101.67 14.248 102.31 15.144C102.966 16.024 103.942 16.464 105.238 16.464ZM114.27 1.2H124.446V3.072H116.286V8.64H124.302V10.512H116.286V16.128H124.59V18H114.27V1.2Z" fill="black"/>
</svg>
